# xmcd
#
# Track frame offsets:
#	150
#	12557
#	24330
#	37178
#	49527
#	63951
#	76750
#	89602
#	102613
#	115279
#	127238
#	138427
#	151346
#	162282
#	174478
#	186813
#	199656
#	212158
#	222798
#	233811
#	244193
#	254933
#	266324
#	277868
#	289545
#	303457
#	315171
#	326862
#
# Disc length: 4548 seconds
#
# Revision: 0
# Processed by: cddbd v1.4PL0 Copyright (c) Steve Scherf et al.
# Submitted via: EasyCDDAExtractor 4.6.9.1
#
DISCID=9711c21c
DTITLE=Slim Whitman - Rose Marie CD 2
DYEAR=1996
DGENRE=Country
TTITLE0=There's A Rainbow In Every Teardrop(1996)
TTITLE1=I'm Casting My Lasso Towards The Sky(1956)
TTITLE2=Restless Heart(1953)
TTITLE3=There's A Rainbow In Every Teardrop(1953)
TTITLE4=Danny Boy(1953)
TTITLE5=North Wind(1953)
TTITLE6=Darlin' Don't Cry(1953)
TTITLE7=Stairway To Heaven(1953)
TTITLE8=Lord, Help Me Be As Thou(1953)
TTITLE9=Warm, Warm Lips(1956)
TTITLE10=Ride Away(1954)
TTITLE11=Secret Love(1954)
TTITLE12=Why(1954)
TTITLE13=We Stood At The Altar(1954)
TTITLE14=There's A Loveknot In My Lariat(1956)
TTITLE15=Too Late Now(1956)
TTITLE16=I Leave the Milky Way(1956)
TTITLE17=Rose Marie(1954)
TTITLE18=Heart Full Of Love(1956)
TTITLE19=Cattle Call(1996)
TTITLE20=Beautiful Dreamer(1954)
TTITLE21=Singing Hills(1954)
TTITLE22=Haunted Hungry Heart(1960)
TTITLE23=I Hate to See You Cry(1954)
TTITLE24=You Have My Heart(1956)
TTITLE25=When I Grow Too Old To Dream(1955)
TTITLE26=Cattle Call(1955)
TTITLE27=I Talk To The Waves(1996)
EXTD=
EXTT0=
EXTT1=
EXTT2=
EXTT3=
EXTT4=
EXTT5=
EXTT6=
EXTT7=
EXTT8=
EXTT9=
EXTT10=
EXTT11=
EXTT12=
EXTT13=
EXTT14=
EXTT15=
EXTT16=
EXTT17=
EXTT18=
EXTT19=
EXTT20=
EXTT21=
EXTT22=
EXTT23=
EXTT24=
EXTT25=
EXTT26=
EXTT27=
PLAYORDER=
